<?xml version="1.0" encoding="utf-8"?>
<!-- Generator: Adobe Illustrator 23.1.1, SVG Export Plug-In . SVG Version: 6.00 Build 0)  -->
<svg version="1.1" id="Layer_1" xmlns="http://www.w3.org/2000/svg" xmlns:xlink="http://www.w3.org/1999/xlink" x="0px" y="0px"
	 viewBox="0 0 455.5 47" style="enable-background:new 0 0 455.5 47;" xml:space="preserve">
<style type="text/css">
	.st0{fill:#FFFFFF;}
</style>
<g>
	<path d="M36.5,42.2l1.3-9.9h-4.1v-3h4.6l1-7.3h-4.3v-3h4.8L41,9.4h2.9L42.6,19h5.2l1.3-9.6h3L50.9,19H55v3h-4.6l-0.9,7.3h4.3v3
		h-4.8l-1.3,9.9h-3l1.3-9.9h-5.2l-1.3,9.9H36.5z M46.5,29.3l1-7.3h-5.2l-1,7.3H46.5z"/>
	<path d="M80.3,10.4h-1.4c-0.4-1.4-3.3-2.1-6.4-2.1c-3.4,0-7.7,1.2-7.7,6.1c0,2.4,1.4,4.1,3.2,4.7l6.5,2.2c4.7,1.6,7.9,4.3,7.9,9.4
		c0,7.7-5,12.1-12.8,12.1c-3.8,0-5.9-0.4-8.9-1.3v-3c2.3,0.8,5.9,1.5,8.9,1.5c4.2,0,7.1-2.9,7.1-6.6c0-2.6-1.4-5.2-4.9-6.4l-6-2
		c-4.1-1.4-6.5-4.4-6.5-8.8c0-7.5,6.6-10.1,12.3-10.1c3.8,0,5.6,0.5,8.7,1.2V10.4z"/>
	<path d="M108.2,6.9v2.7H95.6v11.2h8.1v2.5h-8.1v16.1h13.8v2.7H89.6V9.2c0-0.9-0.5-1.3-1.1-1.3V6.9H108.2z"/>
	<path d="M143.3,6.9h8.8V8c-0.6,0-1.1,0.4-1.1,1.3v30.6c0,0.9,0.6,1.3,1.1,1.3v1.1h-7.1v-31l-11.1,31h-2.8l-12.4-29.4V40
		c0,0.8,0.6,1.1,1.1,1.1v1.1h-4.2V9.2c0-0.9-0.5-1.3-1.1-1.3V6.9h8.3L134,33.4L143.3,6.9z"/>
	<path d="M159.4,6.9h13.2c7.4,0,10.7,3.3,10.7,9.7c0,5-2.4,9.8-9.5,9.8H172v-1.5c3.3,0,4.9-2.1,4.9-8.3c0-4.2-1.2-6.9-4.9-6.9h-5.5
		v32.6h-6V9.2c0-0.9-0.5-1.3-1.1-1.3V6.9z"/>
	<path d="M189.2,6.9h11c6.6,0,12.6,1.1,12.6,8.6c0,4.1-2.1,7.7-6.8,8.8l9.1,18h-7.1l-8.3-17.7l1.5-1.5c3.8-0.4,5.5-3.5,5.5-6.7
		c0-5.1-2-6.8-6.5-6.8h-3.9v32.6h-6V9.2c0-0.9-0.5-1.3-1.1-1.3V6.9z"/>
	<path d="M239.9,6.9v2.7h-12.6v11.2h8.1v2.5h-8.1v16.1H241v2.7h-19.8V9.2c0-0.9-0.5-1.3-1.1-1.3V6.9H239.9z"/>
	<path class="st0" d="M275,6.9h8.8V8c-0.6,0-1.1,0.4-1.1,1.3v30.6c0,0.9,0.6,1.3,1.1,1.3v1.1h-7.1v-31l-11.1,31h-2.8l-12.4-29.4V40
		c0,0.8,0.6,1.1,1.1,1.1v1.1h-4.2V9.2c0-0.9-0.5-1.3-1.1-1.3V6.9h8.3l11.1,26.6L275,6.9z"/>
	<path class="st0" d="M291.1,6.9h7.1v35.3h-6V9.2c0-0.9-0.5-1.3-1.1-1.3V6.9z"/>
	<path class="st0" d="M306.6,6.9h7.1v32.7h9.7c1.6,0,3.6-0.8,4.1-3h2.8l-1.3,5.6h-21.3V9.2c0-0.9-0.5-1.3-1.1-1.3V6.9z"/>
	<path class="st0" d="M334.4,42.2h-4.7l13.9-35.3h4.6l12.7,33c0.3,0.8,0.7,1.2,1.5,1.2v1.1h-7.5l-10.6-28.7l-7,17.4h9.8l0.9,2.5
		h-11.8l-2.5,6.4c-0.1,0.2-0.2,0.5-0.2,0.6c0,0.4,0.3,0.7,0.8,0.7V42.2z"/>
	<path class="st0" d="M394.1,42.2h-4.9l-19-27.2v25c0,0.8,0.6,1.1,1.1,1.1v1.1h-4.2V9.2c0-0.9-0.5-1.3-1.1-1.3V6.9h6l19,26.9V9
		c0-0.8-0.6-1.1-1.1-1.1V6.9h4.2V42.2z"/>
</g>
</svg>
